<?xml version="1.0" encoding="utf-8"?>
<!-- Generator: Adobe Illustrator 23.0.3, SVG Export Plug-In . SVG Version: 6.00 Build 0)  -->
<svg version="1.1" id="Layer_1" xmlns="http://www.w3.org/2000/svg" xmlns:xlink="http://www.w3.org/1999/xlink" x="0px" y="0px"
	 viewBox="0 0 1069 142" style="enable-background:new 0 0 1069 142;" xml:space="preserve">
<style type="text/css">
	.st0{fill:#474747;}
	.st1{font-family:'Orbitron-Regular';}
	.st2{font-size:129.8648px;}
	.st3{fill:url(#SVGID_1_);}
</style>
<text transform="matrix(1 0 0 1 307.4692 118.2676)" class="st0 st1 st2">Techazon</text>
<g>
	<linearGradient id="SVGID_1_" gradientUnits="userSpaceOnUse" x1="326.1338" y1="-29.2701" x2="45.9039" y2="209.686">
		<stop  offset="0" style="stop-color:#001789"/>
		<stop  offset="0.4478" style="stop-color:#981C7F"/>
		<stop  offset="0.7095" style="stop-color:#ED1E79"/>
	</linearGradient>
	<path class="st3" d="M306.11,111.67L306.11,111.67l-19.53-75.59c-3.38-14.54-14.92-25.93-29.52-29.14l-49.7,29.15l26.48,4.89
		L110,102.08l78.62-57.43l-31.77,2.16c0,0,22.41-15.46,36.64-25.26h-19.74c-4.23,0-8.3-1.64-11.34-4.59
		C155.4,10.18,145.85,6,135.33,6c-18.45,0-33.9,12.85-37.91,30.08l-19.53,75.58l0,0c-0.98,3.03-1.27,6.38-0.57,9.88
		c1.63,8.16,8.48,14.5,16.74,15.46c6.19,0.72,11.87-1.47,15.89-5.37l0.01,0.01l0.03-0.04c1.32-1.29,2.46-2.77,3.37-4.4l6.29-8.2
		c16.66-21.71,42.46-34.44,69.83-34.44h5.03c27.36,0,53.17,12.73,69.83,34.44l6.29,8.2c0.91,1.62,2.05,3.1,3.37,4.4l0.03,0.04
		l0.01-0.01c4.02,3.9,9.7,6.09,15.89,5.37c8.26-0.97,15.11-7.3,16.74-15.46C307.37,118.05,307.09,114.7,306.11,111.67z
		 M120.09,46.97h8.54v-8.54c0-2.55,2.06-4.61,4.61-4.61c2.55,0,4.61,2.06,4.61,4.61v8.54h8.54c2.55,0,4.61,2.06,4.61,4.61
		c0,2.55-2.06,4.61-4.61,4.61h-8.54v8.54c0,2.55-2.06,4.61-4.61,4.61c-2.55,0-4.61-2.06-4.61-4.61v-8.54h-8.54
		c-2.55,0-4.61-2.06-4.61-4.61C115.48,49.03,117.54,46.97,120.09,46.97z M252.12,31.52c3.69,0,6.69,2.99,6.69,6.69
		c0,3.69-2.99,6.69-6.69,6.69c-3.69,0-6.69-2.99-6.69-6.69C245.43,34.51,248.42,31.52,252.12,31.52z M238.74,58.27
		c-3.69,0-6.69-2.99-6.69-6.69c0-3.69,2.99-6.69,6.69-6.69c3.69,0,6.69,2.99,6.69,6.69C245.43,55.27,242.43,58.27,238.74,58.27z
		 M252.12,71.64c-3.69,0-6.69-2.99-6.69-6.69c0-3.69,2.99-6.69,6.69-6.69c3.69,0,6.69,2.99,6.69,6.69
		C258.8,68.65,255.81,71.64,252.12,71.64z M265.49,58.27c-3.69,0-6.69-2.99-6.69-6.69c0-3.69,2.99-6.69,6.69-6.69
		s6.69,2.99,6.69,6.69C272.18,55.27,269.18,58.27,265.49,58.27z"/>
</g>
</svg>
